<?xml version="1.0" encoding="UTF-8"?>
<!DOCTYPE svg PUBLIC "-//W3C//DTD SVG 1.1//EN" "http://www.w3.org/Graphics/SVG/1.1/DTD/svg11.dtd">
<!-- Creator: CorelDRAW -->
<svg xmlns="http://www.w3.org/2000/svg" xml:space="preserve" width="297mm" height="50mm" version="1.1" style="shape-rendering:geometricPrecision; text-rendering:geometricPrecision; image-rendering:optimizeQuality; fill-rule:evenodd; clip-rule:evenodd"
viewBox="0 0 297 50"
 xmlns:xlink="http://www.w3.org/1999/xlink"
 xmlns:xodm="http://www.corel.com/coreldraw/odm/2003">
 <defs>
  <style type="text/css">
   <![CDATA[
    .fil2 {fill:#E6E7E8}
    .fil6 {fill:#3E4095}
    .fil5 {fill:#244767}
    .fil9 {fill:#373435;fill-rule:nonzero}
    .fil7 {fill:#DA4F9B;fill-rule:nonzero}
    .fil1 {fill:#3E4095;fill-rule:nonzero}
    .fil8 {fill:url(#id4)}
    .fil3 {fill:url(#id5)}
    .fil4 {fill:url(#id6)}
    .fil0 {fill:url(#id7)}
   ]]>
  </style>
    <clipPath id="id0">
     <rect x="77.1545" y="24.9001" width="59.0548" height="12.4226"/>
    </clipPath>
    <clipPath id="id1">
     <rect x="143.7769" y="3.3511" width="59.0548" height="12.4225"/>
    </clipPath>
    <clipPath id="id2">
     <rect x="77.1739" y="24.9384" width="59.0549" height="12.4226"/>
    </clipPath>
    <clipPath id="id3">
     <rect x="143.7964" y="3.3894" width="59.0547" height="12.4225"/>
    </clipPath>
  <linearGradient id="id4" gradientUnits="userSpaceOnUse" x1="45.4545" y1="16.1634" x2="88.2858" y2="35.4614">
   <stop offset="0" style="stop-opacity:1; stop-color:#3E4095"/>
   <stop offset="0.501961" style="stop-opacity:1; stop-color:#00AFEF"/>
   <stop offset="1" style="stop-opacity:1; stop-color:#3E4095"/>
  </linearGradient>
  <linearGradient id="id5" gradientUnits="userSpaceOnUse" x1="55.6861" y1="7.1192" x2="81.828" y2="42.5616">
   <stop offset="0" style="stop-opacity:1; stop-color:#0E2133"/>
   <stop offset="0.501961" style="stop-opacity:1; stop-color:#366FA2"/>
   <stop offset="1" style="stop-opacity:1; stop-color:#0E2133"/>
  </linearGradient>
  <linearGradient id="id6" gradientUnits="userSpaceOnUse" xlink:href="#id5" x1="45.4351" y1="16.1252" x2="88.2663" y2="35.4231">
  </linearGradient>
  <radialGradient id="id7" gradientUnits="userSpaceOnUse" gradientTransform="matrix(0.918913 -0 -0 0.999996 5 0)" cx="57.788" cy="19.7108" r="19.5706" fx="57.788" fy="19.7108">
   <stop offset="0" style="stop-opacity:1; stop-color:#356C9E"/>
   <stop offset="1" style="stop-opacity:1; stop-color:#2A5276"/>
  </radialGradient>
 </defs>
 <g id="Camada_x0020_1">
  <metadata id="CorelCorpID_0Corel-Layer"/>
  <g id="_2771416373168">
   <path class="fil0" d="M69.1225 10.9821c2.6358,3.3239 2.7496,7.5939 1.1383,12.5106 0.4156,5.8047 -2.2499,9.1799 -6.959,10.9435 -5.419,-0.509 -10.838,-1.0178 -16.257,-1.5268 -0.9293,-4.0478 -1.8588,-8.0955 -2.7882,-12.1434 0.4743,-2.3334 0.9486,-4.6669 1.423,-7.0004 1.0593,-5.029 4.515,-7.5524 9.4677,-8.5111 6.6527,-1.106 11.0001,1.2734 13.9752,5.7276zm-11.7299 5.3543c1.1318,0 2.0492,0.9174 2.0492,2.0491 0,1.1317 -0.9174,2.0492 -2.0492,2.0492 -1.1317,0 -2.0491,-0.9175 -2.0491,-2.0492 0,-1.1317 0.9174,-2.0491 2.0491,-2.0491z"/>
   <path class="fil1" d="M43.1866 12.839l0 -7.0828 -24.0407 0 0 7.0828 8.1143 0 0 22.4559 7.8122 0 0 -22.4559 8.1142 0zm53.4332 0l0 -7.0828 -24.0406 0 0 7.0828 8.1143 0 0 21.253c2.353,-1.3466 4.8841,-2.4515 7.8121,-3.0177l0 -18.2353 8.1142 0zm14.7609 -7.0411l-7.0351 0 -8.9142 24.6646 7.8335 0.804 0.6059 -1.8877 8.1575 0 1.2279 3.6589c2.8168,0.4073 5.551,0.4003 8.2038,-0.0133l-10.0793 -27.2265zm-5.7835 16.9567l2.2444 -8.6242 0.2158 0 2.115 8.6242 -4.5752 0zm27.592 5.1661l-1.0913 0 0 -22.1228 -7.7688 0 0 26.6159c3.5507,-0.8362 6.4589,-2.3843 8.8601,-4.4931zm36.1135 -16.2484c-2.1149,-4.7077 -6.6469,-6.291 -10.6177,-6.291 -5.0252,0 -10.0507,2.3054 -11.6001,6.9159 -0.3136,0.9332 -0.4848,1.961 -0.4848,3.0831l0 10.1239c0,6.791 6.0425,10.2073 12.0849,10.2073 6.1289,0 11.9988,-3.4163 11.9988,-10.2073l0 -7.3325 -12.3009 0 0 6.2494 4.8772 0 0 1.0831c0,4.5829 -8.9343,4.6246 -8.9343,0l0 -10.1239c0,-3.8746 6.8195,-4.7912 8.5027,-0.8333l6.4742 -2.8747zm21.235 23.6226l9.625 0 -8.3303 -10.1239c3.712,-1.1249 5.9996,-4.208 5.9996,-9.6658 -0.1727,-6.9158 -2.6068,-9.7073 -11.3514,-9.7073l-12.2145 0 0 29.497 7.8121 0 0 -9.3741 1.3812 0 7.0783 9.3741zm-8.4595 -15.7901l0 -6.7493 4.5319 0c4.8772,0 4.8772,6.7493 0,6.7493l-4.5319 0z"/>
   <path class="fil2" d="M15.8482 6.1318c7.1783,-0.5779 12.9873,1.993 17.655,7.4758 -4.3664,-3.7601 -9.5986,-6.6464 -17.655,-7.4758z"/>
   <path class="fil2" d="M16.1123 4.8551c7.7132,-0.8193 14.0386,1.7892 19.215,7.5646 -4.8047,-3.9288 -10.5177,-6.8927 -19.215,-7.5646z"/>
   <path class="fil3" d="M71.0671 22.4246c-3.2803,4.6131 -6.8726,6.3143 -10.6839,5.9724 8.9891,-1.3777 14.8341,-10.0803 9.1576,-19.2443 -4.6442,-5.9798 -13.7557,-5.8883 -17.9925,0.2465 -9.312,11.3342 -1.9855,27.6434 12.352,22.4485 13.0037,-5.7022 27.7075,-2.1828 28.9992,10.0867 -1.1499,-2.1267 -3.8267,-2.9171 -9.224,-1.3272 -7.4084,2.0797 -13.206,5.3332 -18.7843,4.9817 -5.9982,-0.8973 -14.5939,-5.9754 -17.8464,-12.6795 -2.8996,-7.9876 -4.0434,-16.2719 1.3936,-22.3964 5.0007,-5.633 11.0681,-8.4116 18.2489,-4.8775 6.3841,3.8312 7.7729,10.923 4.3798,16.7891z"/>
   <path class="fil4" d="M69.01 23.42c-3.2803,4.6131 -6.8726,6.3143 -10.6839,5.9724 8.9891,-1.3777 14.834,-10.0803 9.1576,-19.2443 -5.5849,-7.1911 -17.1161,-5.98 -20.837,4.3133 -5.4779,15.1544 6.2414,21.719 15.1965,18.3817 14.0655,-5.6027 27.7075,-2.1828 28.9991,10.0867 -1.1498,-2.1267 -3.8266,-2.9171 -9.2239,-1.3272 -7.4085,2.0797 -13.206,5.3331 -18.7844,4.9817 -5.9982,-0.8973 -14.9683,-5.8064 -17.8463,-12.6795 -3.2821,-7.8382 -2.8652,-15.3884 1.9245,-22.0314 4.8016,-6.6597 10.5372,-8.7766 17.718,-5.2425 6.384,3.8311 7.7729,10.923 4.3798,16.7891z"/>
   <path class="fil5" d="M57.3926 16.5594c1.0086,0 1.8262,0.8176 1.8262,1.8261 0,1.0086 -0.8176,1.8262 -1.8262,1.8262 -1.0085,0 -1.8261,-0.8176 -1.8261,-1.8262 0,-1.0085 0.8176,-1.8261 1.8261,-1.8261zm0 -0.8495c1.4778,0 2.6757,1.1979 2.6757,2.6756 0,1.4778 -1.1979,2.6756 -2.6757,2.6756 -1.4777,0 -2.6756,-1.1978 -2.6756,-2.6756 0,-1.4777 1.1979,-2.6756 2.6756,-2.6756z"/>
   <g style="clip-path:url(#id0)">
    <image id="PAPEL_x0020_1" x="77.1545" y="24.9001" width="59.0548" height="12.4226" xlink:href="logo_Images\logo_ImgID1.png"/>
   </g>
   <g style="clip-path:url(#id1)">
    <image id="PAPEL_x0020_2" x="143.7769" y="3.3511" width="59.0548" height="12.4225" xlink:href="logo_Images\logo_ImgID2.png"/>
   </g>
   <path class="fil6" d="M69.1419 11.0204c2.6359,3.3239 2.7497,7.5938 1.1383,12.5105 0.4157,5.8048 -2.2498,9.18 -6.9589,10.9435 -5.419,-0.5089 -10.838,-1.0178 -16.257,-1.5267 -0.9294,-4.0478 -1.8589,-8.0956 -2.7883,-12.1434 0.4744,-2.3335 0.9487,-4.667 1.423,-7.0005 1.0594,-5.0289 4.5151,-7.5524 9.4677,-8.511 6.6527,-1.106 11.0002,1.2734 13.9752,5.7276zm-11.7298 5.3542c1.1317,0 2.0492,0.9175 2.0492,2.0492 0,1.1317 -0.9175,2.0491 -2.0492,2.0491 -1.1317,0 -2.0492,-0.9174 -2.0492,-2.0491 0,-1.1317 0.9175,-2.0492 2.0492,-2.0492z"/>
   <path class="fil7" d="M80.713 34.2156l0 1.1176 7.8121 0 0 -4.3202c1.8626,-0.0808 -5.9966,1.1511 -7.8121,3.2026zm14.702 -3.6157l-1.7107 4.7333 8.2868 0 1.3235 -4.1225 9.9804 1.9232 0.7381 2.1993 8.2869 0 -0.8705 -2.3514c-4.8752,1.0094 -11.1114,0.0662 -17.8763,-1.6355 -2.6483,-0.6662 -5.4388,-0.4976 -8.1582,-0.7464zm28.9335 4.7333l20.1994 0 0 -7.3742 -11.3077 0c-2.6888,2.1333 -5.5034,3.9625 -8.8917,4.4088l0 2.9654zm44.9736 -23.6226c-0.8687,-1.9338 -1.9094,-3.8573 -3.6231,-4.3265 -3.9611,-1.0845 -14.4574,0.8144 -18.6109,5.0004 -0.6824,0.6877 -0.4686,1.9316 -0.4686,3.034l0 10.124c0,6.791 6.0425,10.2073 12.0849,10.2073 6.129,0 11.9988,-3.4163 11.9988,-10.2073l0 -7.3325 -12.3008 0 0 6.2494 4.8772 0 0 1.0831c0,4.5828 -8.9343,4.6245 -8.9343,0l0 -10.124c0,-3.8746 6.8194,-4.7911 8.5027,-0.8332l6.4741 -2.8747zm21.2351 23.6226l9.6249 0 -8.3302 -10.124c3.7119,-1.1248 5.9996,-4.2079 5.9996,-9.6657 -0.0772,-3.09 -0.5684,-7.5659 -2.7564,-6.9189 -6.6738,1.9734 -14.6835,2.4775 -20.8095,0.1242l0 26.5844 7.8121 0 0 -9.3742 1.3811 0 7.0784 9.3742zm-8.4595 -15.7901l0 -6.7493 4.5319 0c4.8772,0 4.8772,6.7493 0,6.7493l-4.5319 0zm35.0897 -13.7069l-7.0352 0 -10.6607 29.497 8.2869 0 1.899 -5.9161 8.1574 0 1.9854 5.9161 8.287 0 -10.9198 -29.497zm-5.7834 16.9566l2.2442 -8.6241 0.2159 0 2.1149 8.6241 -4.575 0zm18.7317 12.5404l7.7258 0 0 -8.6242 4.5319 0c7.3804,0 11.1355,-5.2077 11.1355,-10.4572 0,-5.2078 -3.7119,-10.4156 -11.1787,-10.4156l-12.2145 0 0 29.497zm7.7258 -15.2486l0 -7.2908 4.4887 0c4.6613,-0.0416 4.6613,7.3326 0,7.2908l-4.4887 0zm26.7165 4.1247l8.8048 0 0 11.1239 7.769 0 0 -29.497 -7.769 0 0 11.1655 -8.8048 0 0 -11.1655 -7.7688 0 0 29.497 7.7688 0 0 -11.1239z"/>
   <path class="fil2" d="M71.0866 22.4629c-3.2804,4.6131 -6.8727,6.3143 -10.6839,5.9724 8.989,-1.3777 14.834,-10.0804 9.1576,-19.2444 -4.6442,-5.9797 -13.7558,-5.8883 -17.9926,0.2466 -9.312,11.3342 -1.9855,27.6434 12.352,22.4484 13.0037,-5.7021 27.7075,-2.1827 28.9992,10.0867 -1.1498,-2.1266 -3.8266,-2.917 -9.2239,-1.3272 -7.4085,2.0797 -13.206,5.3332 -18.7844,4.9818 -5.9982,-0.8973 -14.5939,-5.9754 -17.8463,-12.6795 -2.8996,-7.9877 -4.0434,-16.2719 1.3936,-22.3964 5.0007,-5.633 11.0681,-8.4116 18.2489,-4.8775 6.384,3.8311 7.7728,10.923 4.3798,16.7891z"/>
   <path class="fil8" d="M69.0295 23.4583c-3.2804,4.6131 -6.8727,6.3142 -10.6839,5.9723 8.989,-1.3777 14.834,-10.0803 9.1576,-19.2443 -5.585,-7.191 -17.1162,-5.9799 -20.837,4.3134 -5.478,15.1543 6.2414,21.719 15.1964,18.3816 14.0655,-5.6026 27.7075,-2.1828 28.9992,10.0867 -1.1499,-2.1266 -3.8267,-2.917 -9.224,-1.3272 -7.4084,2.0797 -13.2059,5.3332 -18.7843,4.9818 -5.9982,-0.8973 -14.9683,-5.8064 -17.8463,-12.6795 -3.2822,-7.8382 -2.8653,-15.3885 1.9245,-22.0315 4.8016,-6.6596 10.5371,-8.7765 17.718,-5.2424 6.384,3.8311 7.7728,10.9229 4.3798,16.7891z"/>
   <path class="fil6" d="M57.4121 16.5977c1.0085,0 1.8261,0.8175 1.8261,1.8261 0,1.0085 -0.8176,1.8261 -1.8261,1.8261 -1.0086,0 -1.8261,-0.8176 -1.8261,-1.8261 0,-1.0086 0.8175,-1.8261 1.8261,-1.8261zm0 -0.8495c1.4778,0 2.6756,1.1978 2.6756,2.6756 0,1.4778 -1.1978,2.6756 -2.6756,2.6756 -1.4778,0 -2.6756,-1.1978 -2.6756,-2.6756 0,-1.4778 1.1978,-2.6756 2.6756,-2.6756z"/>
   <g style="clip-path:url(#id2)">
    <image id="PAPEL_x0020_1_0" x="77.1739" y="24.9384" width="59.0549" height="12.4226" xlink:href="logo_Images\logo_ImgID3.png"/>
   </g>
   <g style="clip-path:url(#id3)">
    <image id="PAPEL_x0020_2_1" x="143.7964" y="3.3894" width="59.0547" height="12.4225" xlink:href="logo_Images\logo_ImgID4.png"/>
   </g>
   <polygon class="fil9" points="187.8388,41.7023 185.15,41.7023 185.4637,40.089 188.3094,40.089 188.5783,38.711 184.1081,38.711 182.6741,46.2621 187.3011,46.2621 187.5587,44.8841 184.545,44.8841 184.8923,43.0579 187.5812,43.0579 "/>
   <path id="_1" class="fil9" d="M188.4887 46.1613c0.3697,0.0784 1.1539,0.1568 2.0614,0.1568 1.6357,0 2.7448,-0.3137 3.6187,-1.0083 0.9411,-0.7506 1.5461,-2.0054 1.5461,-3.473 0,-1.1092 -0.381,-1.8598 -0.9859,-2.364 -0.6386,-0.5489 -1.5797,-0.8066 -2.7561,-0.8066 -0.7282,0 -1.4452,0.0448 -2.0838,0.1568l-1.4004 7.3383zm2.8008 -6.1619c0.1681,-0.0336 0.4033,-0.0448 0.6834,-0.0448 1.3332,0 1.9942,0.7058 1.9942,1.8934 0,0.9074 -0.2688,1.6917 -0.7842,2.2743 -0.493,0.5713 -1.266,0.885 -2.1399,0.885 -0.28,0 -0.5153,-0.0224 -0.7058,-0.0448l0.9523 -4.9631z"/>
   <polygon id="_2" class="fil9" points="197.4962,38.711 196.0622,46.2621 197.6754,46.2621 199.1095,38.711 "/>
   <polygon id="_3" class="fil9" points="200.5435,46.2621 202.1568,46.2621 203.3107,40.1226 205.3273,40.1226 205.5962,38.711 199.9833,38.711 199.7032,40.1226 201.6974,40.1226 "/>
   <path id="_4" class="fil9" d="M209.3605 38.5878c-1.0867,0 -2.0502,0.4033 -2.756,1.0755 -0.8851,0.8515 -1.3892,2.2071 -1.3892,3.5739 0,1.7589 1.0979,3.1481 3.0585,3.1481 1.1315,0 2.0838,-0.4033 2.7896,-1.0867 0.8627,-0.8515 1.3444,-2.1847 1.3444,-3.5627 0,-1.8037 -1.0531,-3.1481 -3.0473,-3.1481zm-0.1904 1.3444c1.1875,0 1.5236,0.9075 1.5236,1.8485 0,0.8739 -0.3249,2.1175 -0.9187,2.7113 -0.3473,0.3361 -0.7954,0.5489 -1.2659,0.5489 -1.098,0 -1.5797,-0.7954 -1.5797,-1.8597 0,-0.9075 0.3361,-2.0727 0.9411,-2.6776 0.3473,-0.3474 0.7954,-0.5714 1.2996,-0.5714z"/>
   <path id="_5" class="fil9" d="M212.7888 46.2621l1.6021 0 0.5601 -2.9801 0.493 0c0.6386,0 0.9523,0.2801 1.0195,1.1988 0.0784,0.9298 0.1568,1.5796 0.224,1.7813l1.6582 0c-0.1345,-0.3137 -0.2017,-1.2996 -0.2913,-2.1398 -0.0785,-0.6835 -0.2689,-1.1876 -0.7171,-1.3781l0 -0.0448c0.9635,-0.3137 1.7142,-1.0083 1.7142,-2.1286 0,-0.7058 -0.3473,-1.1876 -0.8403,-1.4789 -0.5265,-0.3249 -1.266,-0.4257 -1.983,-0.4257 -0.7506,0 -1.5125,0.0672 -2.0166,0.1905l-1.4228 7.4054zm2.8008 -6.2739c0.1345,-0.0336 0.3249,-0.056 0.6274,-0.056 0.6386,0 1.154,0.2689 1.154,0.8738 0,0.7395 -0.6386,1.266 -1.5125,1.266l-0.6722 0 0.4033 -2.0838z"/>
   <path id="_6" class="fil9" d="M223.6897 44.3015l0.1568 1.9606 1.6917 0 -0.8851 -7.5511 -2.0726 0 -3.6747 7.5511 1.7141 0 0.8963 -1.9606 2.1735 0zm-1.703 -1.2324l0.7507 -1.6245c0.2016,-0.4369 0.4145,-1.0195 0.605,-1.4788l0.0224 0c0.0336,0.4593 0.0784,1.0643 0.112,1.4788l0.1456 1.6245 -1.6357 0z"/>
   <path id="_7" class="fil9" d="M235.6101 41.96l-2.7448 0 -0.2465 1.2884 1.1651 0 -0.3025 1.5909c-0.1792,0.0784 -0.4481,0.1344 -0.8178,0.1344 -1.1876,0 -1.9382,-0.6386 -1.9382,-1.9046 0,-1.0307 0.4369,-1.927 1.0867,-2.4423 0.5042,-0.3921 1.1764,-0.605 1.927,-0.605 0.6722,0 1.2548,0.1569 1.6021,0.3137l0.4818 -1.3668c-0.2913,-0.1457 -1.0196,-0.3361 -2.0055,-0.3361 -1.3108,0 -2.4759,0.3921 -3.3274,1.0979 -0.9635,0.8179 -1.546,2.039 -1.546,3.4507 0,0.9635 0.3473,1.7925 0.9523,2.3303 0.6273,0.5601 1.4788,0.829 2.5207,0.829 0.9523,0 1.8598,-0.2352 2.4424,-0.4257l0.7506 -3.9548z"/>
   <path id="_8" class="fil9" d="M236.1591 46.2621l1.6021 0 0.5601 -2.9801 0.493 0c0.6386,0 0.9523,0.2801 1.0195,1.1988 0.0784,0.9298 0.1568,1.5796 0.224,1.7813l1.6582 0c-0.1345,-0.3137 -0.2017,-1.2996 -0.2913,-2.1398 -0.0785,-0.6835 -0.2689,-1.1876 -0.7171,-1.3781l0 -0.0448c0.9635,-0.3137 1.7142,-1.0083 1.7142,-2.1286 0,-0.7058 -0.3473,-1.1876 -0.8403,-1.4789 -0.5265,-0.3249 -1.266,-0.4257 -1.983,-0.4257 -0.7506,0 -1.5125,0.0672 -2.0166,0.1905l-1.4228 7.4054zm2.8008 -6.2739c0.1345,-0.0336 0.3249,-0.056 0.6274,-0.056 0.6386,0 1.154,0.2689 1.154,0.8738 0,0.7395 -0.6386,1.266 -1.5125,1.266l-0.6722 0 0.4033 -2.0838z"/>
   <path id="_9" class="fil9" d="M247.06 44.3015l0.1568 1.9606 1.6917 0 -0.8851 -7.5511 -2.0726 0 -3.6747 7.5511 1.7141 0 0.8963 -1.9606 2.1735 0zm-1.703 -1.2324l0.7507 -1.6245c0.2016,-0.4369 0.4145,-1.0195 0.605,-1.4788l0.0224 0c0.0336,0.4593 0.0784,1.0643 0.112,1.4788l0.1456 1.6245 -1.6357 0zm1.9046 -6.173l-1.0531 1.4116 1.3892 0 1.4565 -1.4116 -1.7926 0z"/>
   <polygon id="_10" class="fil9" points="249.7264,46.2621 251.3397,46.2621 251.911,43.226 254.5326,43.226 254.8015,41.8592 252.1687,41.8592 252.516,40.089 255.3169,40.089 255.5857,38.711 251.1604,38.711 "/>
   <polygon id="_11" class="fil9" points="256.8517,38.711 255.4177,46.2621 257.0309,46.2621 258.465,38.711 "/>
   <path id="_12" class="fil9" d="M264.0554 44.7496c-0.3809,0.1569 -0.9074,0.2465 -1.434,0.2465 -1.3332,0 -2.0054,-0.8066 -2.0054,-2.0054 0,-1.0531 0.4033,-1.9158 1.0419,-2.4311 0.4594,-0.3809 1.0755,-0.5826 1.7253,-0.5826 0.6498,0 1.1428,0.1344 1.3669,0.2465l0.4369 -1.3108c-0.2129,-0.1345 -0.8291,-0.3137 -1.6469,-0.3137 -1.0643,0 -1.9942,0.2464 -2.7785,0.7954 -1.1427,0.7618 -1.9045,2.0838 -1.9045,3.7756 0,1.9942 1.3444,3.2153 3.3386,3.2153 0.9075,0 1.5909,-0.1568 1.9942,-0.3361l-0.1345 -1.2996z"/>
   <path id="_13" class="fil9" d="M269.3883 44.3015l0.1568 1.9606 1.6917 0 -0.8851 -7.5511 -2.0726 0 -3.6747 7.5511 1.7141 0 0.8963 -1.9606 2.1735 0zm-1.703 -1.2324l0.7507 -1.6245c0.2016,-0.4369 0.4145,-1.0195 0.605,-1.4788l0.0224 0c0.0336,0.4593 0.0784,1.0643 0.112,1.4788l0.1456 1.6245 -1.6357 0z"/>
  </g>
 </g>
</svg>
